<svg width="22" height="22" viewBox="0 0 22 22" fill="none" xmlns="http://www.w3.org/2000/svg">
<path d="M14.5108 19.5614L19.9088 15.8297M9.75 14.3333C8.64788 14.3333 7.60116 14.122 6.65853 13.7424C6.00536 13.4794 5.67878 13.3479 5.49746 13.3024C5.309 13.2552 5.19979 13.2381 5.00451 13.2251C4.81664 13.2127 4.67599 13.2222 4.39469 13.2413C4.27963 13.2491 4.17812 13.2601 4.08197 13.2756C2.54302 13.5232 1.33859 14.5938 1.05997 15.9618C1 16.2562 1 16.6094 1 17.3157V19.2222C1 19.8446 1 20.1557 1.13624 20.3933C1.25609 20.6024 1.44731 20.7723 1.68251 20.8789C1.9499 21 2.29994 21 3 21H9.75M21 17.6667C21 19.5077 19.3211 21 17.25 21C15.1789 21 13.5 19.5077 13.5 17.6667C13.5 15.8257 15.1789 14.3333 17.25 14.3333C19.3211 14.3333 21 15.8257 21 17.6667ZM14.75 5.44444C14.75 7.89904 12.5114 9.8889 9.75 9.8889C6.98857 9.8889 4.75 7.89904 4.75 5.44444C4.75 2.98984 6.98857 1 9.75 1C12.5114 1 14.75 2.98984 14.75 5.44444Z" stroke="white" stroke-width="2" stroke-linecap="round" stroke-linejoin="round"/>
</svg>
