<svg width="26" height="26" viewBox="0 0 26 26" fill="none" xmlns="http://www.w3.org/2000/svg">
<path opacity="0.5" d="M12.8333 25.3334C19.7368 25.3334 25.3333 19.7369 25.3333 12.8334C25.3333 5.92982 19.7368 0.333374 12.8333 0.333374C5.9297 0.333374 0.333252 5.92982 0.333252 12.8334C0.333252 14.8329 0.802775 16.7229 1.63758 18.3989C1.85942 18.8444 1.93326 19.3535 1.80465 19.8342L1.06014 22.6167C0.736945 23.8246 1.84202 24.9296 3.04993 24.6064L5.83248 23.862C6.31317 23.7334 6.82226 23.8072 7.26766 24.0291C8.94371 24.8638 10.8337 25.3334 12.8333 25.3334Z" fill="#7990DA"/>
<path d="M11.5833 12.8338C11.5833 13.5241 12.1429 14.0838 12.8333 14.0838C13.5236 14.0838 14.0833 13.5241 14.0833 12.8338C14.0833 12.1435 13.5236 11.5838 12.8333 11.5838C12.1429 11.5838 11.5833 12.1435 11.5833 12.8338Z" fill="#2E2E2E"/>
<path d="M6.58325 12.8338C6.58325 13.5241 7.1429 14.0838 7.83325 14.0838C8.5236 14.0838 9.08325 13.5241 9.08325 12.8338C9.08325 12.1435 8.5236 11.5838 7.83325 11.5838C7.1429 11.5838 6.58325 12.1435 6.58325 12.8338Z" fill="#2E2E2E"/>
<path d="M16.5833 12.8338C16.5833 13.5241 17.1429 14.0838 17.8333 14.0838C18.5236 14.0838 19.0833 13.5241 19.0833 12.8338C19.0833 12.1435 18.5236 11.5838 17.8333 11.5838C17.1429 11.5838 16.5833 12.1435 16.5833 12.8338Z" fill="#2E2E2E"/>
</svg>
