<svg width="23" height="23" viewBox="0 0 23 23" fill="none" xmlns="http://www.w3.org/2000/svg">
<path d="M11.6665 21.6666C17.1893 21.6666 21.6665 17.1894 21.6665 11.6666C21.6665 6.14378 17.1893 1.66663 11.6665 1.66663C6.14365 1.66663 1.6665 6.14378 1.6665 11.6666C1.6665 13.2663 2.04212 14.7782 2.70996 16.1191C2.88744 16.4754 2.94651 16.8827 2.84362 17.2672L2.24801 19.4933C1.98945 20.4596 2.87351 21.3436 3.83985 21.0851L6.06589 20.4895C6.45043 20.3866 6.85771 20.4457 7.21403 20.6231C8.55487 21.291 10.0668 21.6666 11.6665 21.6666Z" stroke="white" stroke-width="1.5"/>
<path d="M10.8467 11.9615C10.8467 12.4925 11.2771 12.9231 11.8082 12.9231C12.3392 12.9231 12.7698 12.4925 12.7698 11.9615C12.7698 11.4305 12.3392 11 11.8082 11C11.2771 11 10.8467 11.4305 10.8467 11.9615Z" fill="white"/>
<path d="M7 11.9615C7 12.4925 7.4305 12.9231 7.96154 12.9231C8.49258 12.9231 8.92308 12.4925 8.92308 11.9615C8.92308 11.4305 8.49258 11 7.96154 11C7.4305 11 7 11.4305 7 11.9615Z" fill="white"/>
<path d="M14.6929 11.9615C14.6929 12.4925 15.1233 12.9231 15.6544 12.9231C16.1854 12.9231 16.6159 12.4925 16.6159 11.9615C16.6159 11.4305 16.1854 11 15.6544 11C15.1233 11 14.6929 11.4305 14.6929 11.9615Z" fill="white"/>
</svg>
