<svg width="20" height="20" viewBox="0 0 20 20" fill="none" xmlns="http://www.w3.org/2000/svg">
<path fill-rule="evenodd" clip-rule="evenodd" d="M10.28 17.325C10.9837 17.2761 11.6813 17.1623 12.364 16.985C13.2065 17.2421 14.0972 17.3003 14.966 17.155C15.0004 17.1495 15.0352 17.1468 15.07 17.147C15.38 17.147 15.787 17.327 16.38 17.707V17.082C16.3801 16.9739 16.409 16.8677 16.4636 16.7744C16.5183 16.6811 16.5967 16.604 16.691 16.551C16.949 16.405 17.189 16.237 17.408 16.052C18.272 15.32 18.76 14.344 18.76 13.31C18.76 12.963 18.705 12.626 18.601 12.304C18.862 11.817 19.073 11.305 19.228 10.774C19.7292 11.525 19.9977 12.4071 20 13.31C20 14.715 19.346 16.025 18.215 16.983C18.0262 17.1428 17.8275 17.2904 17.62 17.425V18.886C17.62 19.389 17.04 19.678 16.631 19.379C16.2442 19.0899 15.8438 18.8196 15.431 18.569C15.3128 18.4983 15.1898 18.4358 15.063 18.382C14.723 18.433 14.375 18.459 14.024 18.459C12.612 18.459 11.307 18.036 10.28 17.325ZM2.814 14.403C1.03 12.89 0 10.829 0 8.62C0 4.107 4.258 0.5 9.457 0.5C14.657 0.5 18.915 4.107 18.915 8.62C18.915 13.134 14.656 16.741 9.457 16.741C8.873 16.741 8.295 16.696 7.729 16.606C7.484 16.664 6.505 17.246 5.094 18.276C4.583 18.65 3.858 18.289 3.858 17.66V15.168C3.4926 14.9376 3.14375 14.682 2.814 14.403ZM7.763 15.069C7.806 15.069 7.85 15.072 7.893 15.079C8.403 15.165 8.927 15.209 9.457 15.209C13.849 15.209 17.364 12.231 17.364 8.62C17.364 5.01 13.849 2.032 9.457 2.032C5.067 2.032 1.55 5.01 1.55 8.62C1.55 10.366 2.371 12.01 3.823 13.24C4.188 13.548 4.589 13.828 5.019 14.072C5.26 14.208 5.409 14.462 5.409 14.736V16.173C6.525 15.424 7.259 15.069 7.763 15.069ZM5.426 10.153C4.741 10.153 4.186 9.603 4.186 8.927C4.186 8.25 4.741 7.701 5.426 7.701C6.111 7.701 6.666 8.25 6.666 8.927C6.666 9.604 6.111 10.153 5.426 10.153ZM9.457 10.153C8.772 10.153 8.217 9.603 8.217 8.927C8.217 8.25 8.772 7.701 9.457 7.701C10.142 7.701 10.697 8.25 10.697 8.927C10.697 9.604 10.142 10.153 9.457 10.153ZM13.488 10.153C12.803 10.153 12.248 9.603 12.248 8.927C12.248 8.25 12.803 7.701 13.488 7.701C14.173 7.701 14.728 8.25 14.728 8.927C14.728 9.604 14.173 10.153 13.488 10.153Z" fill="#4098F7"/>
</svg>
