<svg width="26" height="21" viewBox="0 0 26 21" fill="none" xmlns="http://www.w3.org/2000/svg">
<path fill-rule="evenodd" clip-rule="evenodd" d="M25.6665 0.333374V20.3334H0.666504V0.333374H25.6665ZM23.1665 2.83337H3.1665V17.8334H23.1665V2.83337ZM20.6665 12.8334V14.7084H14.4165V12.8334H20.6665ZM9.26025 9.45837C11.0665 9.45837 12.5415 10.9584 12.5415 12.8334H5.0415C5.0415 10.9584 6.51057 9.45837 8.32275 9.45837H9.26025ZM20.6665 9.08337V10.9584H14.4165V9.08337H20.6665ZM8.7915 4.94038C9.6976 4.94038 10.4321 5.67491 10.4321 6.58101C10.4321 7.4871 9.6976 8.22163 8.7915 8.22163C7.88541 8.22163 7.15088 7.4871 7.15088 6.58101C7.15088 5.67491 7.88541 4.94038 8.7915 4.94038ZM20.6665 5.33337V7.20837H14.4165V5.33337H20.6665Z" fill="white"/>
</svg>
