<svg width="22" height="27" viewBox="0 0 22 27" fill="none" xmlns="http://www.w3.org/2000/svg">
<path d="M17.9461 6.28567V7.20279H18.8416V6.28567H17.9461ZM2.50842 7.20279H17.9461V5.36855H2.50842V7.20279ZM18.8416 6.28567V4.21423H17.0506V6.28567H18.8416ZM15.0937 0.885259L2.20091 2.77148L2.4542 4.58727L15.3469 2.70106L15.0937 0.885259ZM2.20091 2.77148C1.12967 2.9282 0.333984 3.86775 0.333984 4.97594H2.12505C2.12505 4.78055 2.26534 4.61491 2.4542 4.58727L2.20091 2.77148ZM18.8416 4.21423C18.8416 2.16782 17.0718 0.595854 15.0937 0.885259L15.3469 2.70106C16.2462 2.56952 17.0506 3.28404 17.0506 4.21423H18.8416ZM2.50842 5.36855C2.29669 5.36855 2.12505 5.19277 2.12505 4.97594H0.333984C0.333984 6.20579 1.30751 7.20279 2.50842 7.20279V5.36855Z" fill="white"/>
<path d="M6.00586 13.6226H15.5582" stroke="white" stroke-width="2" stroke-linecap="round"/>
<path d="M6.00586 17.9025H12.5731" stroke="white" stroke-width="2" stroke-linecap="round"/>
<path d="M1.22852 6.28569V22.1824C1.22852 24.2085 2.83229 25.8509 4.81064 25.8509H16.7511C18.7295 25.8509 20.3332 24.2085 20.3332 22.1824V16.0683M1.22852 6.28569V5.06287M1.22852 6.28569H16.7511C18.7295 6.28569 20.3332 7.92813 20.3332 9.95416V11.177" stroke="white" stroke-width="2" stroke-linecap="round"/>
</svg>
