<svg width="28" height="28" viewBox="0 0 28 28" fill="none" xmlns="http://www.w3.org/2000/svg">
<path d="M14.1738 1.66675C4.79951 1.66675 1.67383 4.79242 1.67383 14.1667C1.67383 23.5411 4.79951 26.6667 14.1738 26.6667C23.5481 26.6667 26.6738 23.5411 26.6738 14.1667" stroke="white" stroke-width="2" stroke-linecap="round" stroke-linejoin="round"/>
<path fill-rule="evenodd" clip-rule="evenodd" d="M24.3477 3.76615C23.0059 2.57831 20.9558 2.70263 19.768 4.04453C19.768 4.04453 13.8639 10.7134 11.8166 13.0283C9.76667 15.3418 11.2694 18.5377 11.2694 18.5377C11.2694 18.5377 14.6531 19.6093 16.6721 17.3283C18.6923 15.0472 24.6261 8.34588 24.6261 8.34588C25.814 7.00398 25.6883 4.95398 24.3477 3.76615Z" stroke="white" stroke-width="2" stroke-linecap="round" stroke-linejoin="round"/>
<path d="M18.2383 5.78931L23.0964 10.0907" stroke="white" stroke-width="2" stroke-linecap="round" stroke-linejoin="round"/>
</svg>
