<svg width="24" height="21" viewBox="0 0 24 21" fill="none" xmlns="http://www.w3.org/2000/svg">
<g clip-path="url(#clip0_118_25)">
<path fill-rule="evenodd" clip-rule="evenodd" d="M3.48595 3.35538C2.75855 4.03796 2.2714 5.14549 2.2714 6.88284V14.4504C2.2714 16.1877 2.75855 17.2953 3.48595 17.9779C4.2241 18.6705 5.33625 19.045 6.81791 19.045H17.5156C18.9972 19.045 20.1093 18.6705 20.8476 17.9779C21.5749 17.2953 22.0621 16.1877 22.0621 14.4504V6.88284C22.0621 5.14549 21.5749 4.03796 20.8476 3.35538C20.1093 2.6627 18.9972 2.28825 17.5156 2.28825H6.81791C5.33625 2.28825 4.2241 2.6627 3.48595 3.35538ZM2.39406 2.16706C3.528 1.10298 5.09027 0.666626 6.81791 0.666626H17.5156C19.2433 0.666626 20.8055 1.10298 21.9394 2.16706C23.0842 3.24124 23.6667 4.83641 23.6667 6.88284V14.4504C23.6667 16.4969 23.0842 18.092 21.9394 19.1662C20.8055 20.2303 19.2433 20.6666 17.5156 20.6666H6.81791C5.09027 20.6666 3.528 20.2303 2.39406 19.1662C1.24936 18.092 0.666748 16.4969 0.666748 14.4504V6.88284C0.666748 4.83641 1.24936 3.24124 2.39406 2.16706Z" fill="white"/>
<path fill-rule="evenodd" clip-rule="evenodd" d="M20.0438 5.59659C20.3147 5.95092 20.2501 6.46013 19.8996 6.73393L13.9655 11.3678C12.906 12.195 11.4274 12.195 10.3679 11.3678L4.43387 6.73393C4.08323 6.46013 4.01862 5.95092 4.28956 5.59659C4.5605 5.24224 5.06438 5.17695 5.41501 5.45076L11.349 10.0845C11.8306 10.4606 12.5028 10.4606 12.9843 10.0845L18.9184 5.45076C19.269 5.17695 19.7729 5.24224 20.0438 5.59659Z" fill="white"/>
</g>
<defs>
<clipPath id="clip0_118_25">
<rect width="24" height="21" fill="white"/>
</clipPath>
</defs>
</svg>
