<svg width="535" height="535" viewBox="0 0 535 535" fill="none" xmlns="http://www.w3.org/2000/svg">
<g clip-path="url(#clip0_109_2)">
<path d="M267.5 0C119.757 0 0 119.757 0 267.5C0 415.243 119.757 535 267.5 535C415.243 535 535 415.243 535 267.5C535 119.757 415.243 0 267.5 0ZM267.5 493.203C142.844 493.203 41.7969 392.156 41.7969 267.5C41.7969 142.844 142.844 41.7969 267.5 41.7969C392.156 41.7969 493.203 142.844 493.203 267.5C493.203 392.156 392.156 493.203 267.5 493.203Z" fill="#7990DA"/>
<path d="M309.297 250.781H300.415C300.741 248.152 300.938 245.36 300.938 242.422C300.938 228.626 285.884 217.344 267.5 217.344C249.116 217.344 234.062 228.626 234.062 242.422C234.062 245.36 234.259 248.152 234.585 250.781H225.703C221.082 250.781 217.344 254.52 217.344 259.141V309.297C217.344 313.918 221.082 317.656 225.703 317.656H309.297C313.918 317.656 317.656 313.918 317.656 309.297V259.141C317.656 254.52 313.918 250.781 309.297 250.781ZM250.781 250.781C245.769 240.756 258.308 230.716 267.5 230.716C276.692 230.716 289.231 240.756 284.219 250.781H250.781Z" fill="#7990DA"/>
<path d="M387.568 325.167L419.634 267.5H399.584C398.752 191.906 340.416 134.256 267.108 134.159C193.327 134.077 133.603 193.801 133.701 267.583C133.782 341.38 193.636 401.234 267.418 401.3C309.085 401.398 346.212 382.361 370.654 352.581L354.686 325.952C335.942 354.182 303.86 372.712 267.37 372.663C209.41 372.631 162.372 325.592 162.323 267.616C162.259 209.64 209.182 162.732 267.142 162.798C324.841 162.896 370.67 210.635 371.16 267.502L351.258 267.47L387.568 325.167Z" fill="#7990DA"/>
</g>
<defs>
<clipPath id="clip0_109_2">
<rect width="535" height="535" fill="white"/>
</clipPath>
</defs>
</svg>
