<svg width="22" height="22" viewBox="0 0 22 22" fill="none" xmlns="http://www.w3.org/2000/svg">
<path d="M13.1512 12.2423C13.1552 12.5496 13.1986 12.8552 13.2803 13.1514H9.38574C9.46745 12.8552 9.51084 12.5496 9.51483 12.2423H13.1512ZM9.96937 8.60598H12.6966C13.0373 8.6072 13.3733 8.68544 13.6795 8.83484C13.9857 8.98424 14.2542 9.20093 14.4648 9.46871C14.6972 9.27159 14.9534 9.10451 15.2276 8.97143C14.9336 8.57711 14.5518 8.25665 14.1125 8.03543C13.6733 7.8142 13.1885 7.6983 12.6966 7.69689H9.96937C9.47753 7.6983 8.99276 7.8142 8.55348 8.03543C8.11419 8.25665 7.73244 8.57711 7.43846 8.97143C7.71289 9.10445 7.96946 9.27152 8.2021 9.46871C8.41264 9.20105 8.68095 8.98443 8.98698 8.83504C9.293 8.68564 9.62883 8.60734 9.96937 8.60598ZM8.60574 4.06053C8.60574 3.52112 8.76569 2.99383 9.06536 2.54533C9.36504 2.09684 9.79098 1.74728 10.2893 1.54085C10.7877 1.33443 11.336 1.28042 11.8651 1.38566C12.3941 1.49089 12.8801 1.75064 13.2615 2.13205C13.6429 2.51347 13.9026 2.99942 14.0079 3.52846C14.1131 4.0575 14.0591 4.60586 13.8527 5.10421C13.6463 5.60255 13.2967 6.02849 12.8482 6.32817C12.3997 6.62785 11.8724 6.7878 11.333 6.7878C10.6099 6.78708 9.91664 6.49951 9.40533 5.9882C8.89403 5.47689 8.60646 4.78362 8.60574 4.06053ZM9.51483 4.06053C9.51483 4.42013 9.62146 4.77165 9.82125 5.07065C10.021 5.36965 10.305 5.60269 10.6372 5.74031C10.9694 5.87792 11.335 5.91393 11.6877 5.84377C12.0404 5.77362 12.3644 5.60045 12.6187 5.34617C12.8729 5.0919 13.0461 4.76793 13.1163 4.41524C13.1864 4.06254 13.1504 3.69697 13.0128 3.36474C12.8752 3.03251 12.6421 2.74855 12.3431 2.54876C12.0441 2.34898 11.6926 2.24234 11.333 2.24234C10.8509 2.24283 10.3888 2.43454 10.0479 2.77541C9.70702 3.11628 9.51531 3.57846 9.51483 4.06053ZM4.51483 15.8787H7.2421C8.08567 15.8797 8.89442 16.2152 9.49092 16.8117C10.0874 17.4082 10.423 18.2169 10.4239 19.0605V21.3333H1.33301V19.0605C1.33397 18.2169 1.66951 17.4082 2.266 16.8117C2.8625 16.2152 3.67125 15.8797 4.51483 15.8787ZM4.51483 16.7878C3.91228 16.7885 3.33463 17.0282 2.90856 17.4543C2.4825 17.8803 2.24282 18.458 2.2421 19.0605V20.4242H9.51483V19.0605C9.5141 18.458 9.27443 17.8803 8.84836 17.4543C8.4223 17.0282 7.84464 16.7885 7.2421 16.7878H4.51483ZM5.87846 14.9696C5.33906 14.9696 4.81177 14.8097 4.36327 14.51C3.91477 14.2103 3.56521 13.7844 3.35879 13.286C3.15237 12.7877 3.09836 12.2393 3.20359 11.7103C3.30883 11.1812 3.56857 10.6953 3.94999 10.3139C4.33141 9.93245 4.81736 9.67271 5.3464 9.56747C5.87544 9.46224 6.4238 9.51625 6.92214 9.72267C7.42049 9.92909 7.84643 10.2787 8.14611 10.7272C8.44578 11.1756 8.60574 11.7029 8.60574 12.2423C8.60501 12.9654 8.31744 13.6587 7.80614 14.17C7.29483 14.6813 6.60156 14.9689 5.87846 14.9696ZM5.87846 14.0605C6.23806 14.0605 6.58959 13.9539 6.88859 13.7541C7.18759 13.5543 7.42063 13.2704 7.55824 12.9381C7.69586 12.6059 7.73186 12.2403 7.66171 11.8876C7.59155 11.5349 7.41839 11.211 7.16411 10.9567C6.90983 10.7024 6.58586 10.5293 6.23317 10.4591C5.88048 10.3889 5.5149 10.4249 5.18267 10.5626C4.85044 10.7002 4.56648 10.9332 4.3667 11.2322C4.16692 11.5312 4.06028 11.8827 4.06028 12.2423C4.06076 12.7244 4.25247 13.1866 4.59335 13.5275C4.93422 13.8683 5.3964 14.06 5.87846 14.0605ZM21.333 19.0605V21.3333H12.2421V19.0605C12.2431 18.2169 12.5786 17.4082 13.1751 16.8117C13.7716 16.2152 14.5803 15.8797 15.4239 15.8787H18.1512C18.9948 15.8797 19.8035 16.2152 20.4 16.8117C20.9965 17.4082 21.332 18.2169 21.333 19.0605ZM20.4239 19.0605C20.4232 18.458 20.1835 17.8803 19.7575 17.4543C19.3314 17.0282 18.7537 16.7885 18.1512 16.7878H15.4239C14.8214 16.7885 14.2437 17.0282 13.8177 17.4543C13.3916 17.8803 13.1519 18.458 13.1512 19.0605V20.4242H20.4239V19.0605ZM19.5148 12.2423C19.5148 12.7817 19.3549 13.309 19.0552 13.7575C18.7555 14.206 18.3296 14.5556 17.8312 14.762C17.3329 14.9684 16.7845 15.0224 16.2555 14.9172C15.7264 14.812 15.2405 14.5522 14.8591 14.1708C14.4777 13.7894 14.2179 13.3034 14.1127 12.7744C14.0075 12.2454 14.0615 11.697 14.2679 11.1987C14.4743 10.7003 14.8239 10.2744 15.2724 9.9747C15.7209 9.67502 16.2482 9.51507 16.7876 9.51507C17.5106 9.51579 18.2039 9.80336 18.7152 10.3147C19.2265 10.826 19.5141 11.5192 19.5148 12.2423ZM18.6057 12.2423C18.6057 11.8827 18.4991 11.5312 18.2993 11.2322C18.0995 10.9332 17.8156 10.7002 17.4833 10.5626C17.1511 10.4249 16.7855 10.3889 16.4328 10.4591C16.0802 10.5293 15.7562 10.7024 15.5019 10.9567C15.2476 11.211 15.0745 11.5349 15.0043 11.8876C14.9342 12.2403 14.9702 12.6059 15.1078 12.9381C15.2454 13.2704 15.4784 13.5543 15.7774 13.7541C16.0764 13.9539 16.428 14.0605 16.7876 14.0605C17.2696 14.06 17.7318 13.8683 18.0727 13.5275C18.4135 13.1866 18.6053 12.7244 18.6057 12.2423Z" stroke="white" stroke-width="0.95"/>
</svg>
