<svg width="800" height="800" viewBox="0 0 800 800" fill="none" xmlns="http://www.w3.org/2000/svg">
<path d="M634.896 545.949V516.111C634.896 483.28 604.956 456.667 568.021 456.667C531.086 456.667 501.146 483.28 501.146 516.111V545.949M333.958 635H186.833C168.107 635 158.743 635 151.591 631.76C145.299 628.91 140.184 624.365 136.978 618.772C133.333 612.414 133.333 604.092 133.333 587.444V536.444C133.333 517.553 133.333 508.104 134.938 500.228C142.391 463.634 174.609 434.996 215.776 428.371C218.348 427.958 221.063 427.664 224.141 427.456C231.666 426.944 235.428 426.689 240.454 427.022C245.678 427.369 248.599 427.827 253.64 429.09C258.491 430.306 267.227 433.825 284.699 440.86C309.914 451.013 337.914 456.667 367.396 456.667C373.027 456.667 378.601 456.462 384.115 456.057M517.865 635H618.177C633.756 635 641.547 635 647.692 632.738C655.885 629.721 662.395 623.934 665.789 616.652C668.333 611.19 668.333 604.264 668.333 590.417C668.333 576.569 668.333 569.644 665.789 564.181C662.395 556.899 655.885 551.112 647.692 548.095C641.547 545.833 633.756 545.833 618.177 545.833H517.865C502.286 545.833 494.495 545.833 488.349 548.095C480.157 551.112 473.647 556.899 470.253 564.181C467.708 569.644 467.708 576.569 467.708 590.417C467.708 604.264 467.708 611.19 470.253 616.652C473.647 623.934 480.157 629.721 488.349 632.738C494.495 635 502.286 635 517.865 635ZM501.146 218.889C501.146 284.549 441.263 337.778 367.396 337.778C293.528 337.778 233.646 284.549 233.646 218.889C233.646 153.228 293.528 100 367.396 100C441.263 100 501.146 153.228 501.146 218.889Z" stroke="#7990DA" stroke-width="66.6667" stroke-linecap="round" stroke-linejoin="round"/>
</svg>
