<svg width="535" height="335" viewBox="0 0 535 335" fill="none" xmlns="http://www.w3.org/2000/svg">
<path d="M286.333 1.99999C264.067 3.86666 260.867 4.39999 243.667 8.26666C227.133 12 221.8 13.6 206.333 19.3333C192.467 24.5333 159 41.2 159 42.9333C159 43.6 164.067 44 170.2 44C196.733 44 236.867 50 259.133 57.3333C313.4 75.0667 353.933 107.6 370.067 146C381.933 174.533 381.667 195.6 368.867 228C366.867 233.067 365.533 237.733 366.067 238.133C366.467 238.533 369 238.267 371.667 237.333C374.333 236.4 381.4 235.6 387.4 235.467L398.333 235.333L407.8 243.333C413 247.733 423.267 256.533 430.467 262.8C437.667 269.067 445 274.933 446.733 275.867L449.667 277.467V248.267C449.667 214.533 448.2 218.267 465.667 208.667C481.8 199.733 495.533 189.467 506.6 178.4C518.6 166 524.467 157.333 529.8 143.6C533.4 134.133 534.067 131.067 534.067 120C534.067 109.6 533.533 105.733 530.733 98.4C520.733 71.7333 498.067 48.9333 464.067 31.3333C415 5.99999 355.667 -3.86667 286.333 1.99999Z" fill="#8F9DFB"/>
<path d="M143.4 71.3334C118.467 74.2667 97 80.4 75.6666 90.5334C36.7333 109.067 11.5333 135.2 2.33329 167.067C-0.866715 178.267 -0.600048 197.333 2.99995 208.133C11.5333 233.6 29.5333 255.333 55.8 271.333C71.2666 280.8 71.4 281.067 70.4666 287.6C70.0666 290.667 67.4 300.933 64.6 310.267C57.4 334 57.1333 335.2 59.5333 334.267C60.6 333.867 68.3333 328.4 76.6 322.267C103 302.8 111.8 297.333 116.733 297.333C119.133 297.333 128.067 298.667 136.467 300.267C159.8 304.667 194.333 304.4 220.333 299.6C253.667 293.467 279.533 283.6 302.6 268.133C313.933 260.533 329.8 245.733 337.133 236C352.467 215.2 358.067 185.2 350.467 162.933C344.6 145.867 339.4 137.6 325 123.333C317.667 115.867 307.4 107.2 302.333 103.733C278.2 88 249.8 77.3334 220.067 72.6667C201.4 69.7334 162.2 69.0667 143.4 71.3334ZM217.533 151.867C218.6 152.533 219.667 156.133 220.067 160.4C220.6 166.533 220.2 168.133 217.8 170.533C215 173.333 214.067 173.333 171.533 173.333C144.2 173.333 127.267 172.8 125.533 172C123.533 170.8 123 169.067 123 162.667C123 150 120.333 150.667 171.4 150.667C195.8 150.667 216.467 151.2 217.533 151.867ZM252.467 209.2C255.133 211.333 255.667 213.067 255.667 218.533C255.667 230.8 261.533 230 175.933 230.4C134.733 230.667 99 230.4 96.4666 230C86.0666 228 82.6 218.267 89.5333 210.8L93.4 206.667H171.4C246.2 206.667 249.533 206.8 252.467 209.2Z" fill="#8F9DFB"/>
</svg>
