<svg width="80" height="80" viewBox="0 0 80 80" fill="none" xmlns="http://www.w3.org/2000/svg">
<path d="M79.6749 76.3016C79.7066 76.2352 79.7368 76.1683 79.764 76.0995C79.7786 76.0629 79.7912 76.0261 79.8042 75.9893C79.8274 75.9243 79.8496 75.8587 79.8688 75.7917C79.8805 75.7504 79.8906 75.7088 79.9008 75.6672C79.9162 75.6037 79.9309 75.5405 79.9426 75.476C79.9512 75.4299 79.9573 75.3837 79.9637 75.3376C79.9722 75.276 79.9805 75.2144 79.9858 75.1517C79.9896 75.1037 79.9912 75.0555 79.993 75.0075C79.9949 74.9627 79.9997 74.9187 79.9997 74.8736V34.8744C79.9997 34.5509 79.9517 34.2328 79.8616 33.9285C79.8613 33.9275 79.861 33.9264 79.8605 33.9253C79.8304 33.8232 79.7952 33.7232 79.7557 33.6248C79.7546 33.6224 79.7536 33.62 79.7525 33.6173C79.712 33.5181 79.6669 33.4208 79.6173 33.3259L79.6168 33.3253C79.4378 32.984 79.2 32.6728 78.9085 32.408L49.0962 5.30833C43.9384 0.619366 36.0602 0.619366 30.9021 5.30849L1.09277 32.408C1.05605 32.4411 1.02074 32.4757 0.985738 32.5107C0.98277 32.5133 0.979645 32.5157 0.976677 32.5187C0.975426 32.52 0.974487 32.5211 0.973394 32.5224C0.900583 32.5955 0.832149 32.672 0.766837 32.7509C0.75793 32.7616 0.748399 32.772 0.73965 32.7829C0.682306 32.8541 0.628871 32.928 0.577935 33.0029C0.563871 33.0237 0.549341 33.044 0.535749 33.0651C0.491687 33.1331 0.450906 33.2035 0.411999 33.2744C0.396063 33.3035 0.37997 33.3323 0.36497 33.3616C0.330751 33.4288 0.299503 33.4973 0.269973 33.5664C0.255598 33.6003 0.241379 33.6339 0.228098 33.668C0.201536 33.7365 0.177318 33.8059 0.155287 33.876C0.14435 33.9109 0.134194 33.9456 0.124351 33.9808C0.104351 34.0523 0.0865388 34.1248 0.071383 34.1979C0.0645081 34.2312 0.0585708 34.2648 0.0527897 34.2981C0.0395086 34.3736 0.0279465 34.4496 0.0199778 34.5259C0.0166966 34.5571 0.0149779 34.588 0.0126342 34.6192C0.00763432 34.6843 0.00450939 34.7496 0.00325942 34.8149C0.00279067 34.8445 0.00138445 34.8741 0.00169694 34.9037V74.7797C0.00138445 74.7899 0.00185319 74.8 0.00169694 74.8101V74.8733C0.00169694 74.8883 0.00372814 74.9027 0.0038844 74.9176C0.00497811 75.0088 0.00904054 75.1 0.0176341 75.1912C0.0198215 75.2144 0.0231027 75.2371 0.0257589 75.26C0.0356025 75.3456 0.0481022 75.4309 0.0648206 75.516C0.0701329 75.5429 0.076539 75.5699 0.0824764 75.5968C0.0998198 75.6752 0.119351 75.7531 0.142631 75.8307C0.152006 75.8619 0.162475 75.8923 0.172787 75.9229C0.19638 75.9944 0.221692 76.0651 0.250442 76.1352C0.264504 76.1693 0.279973 76.2029 0.295127 76.2365C0.324346 76.3016 0.354501 76.3664 0.38825 76.4301C0.406687 76.4648 0.426687 76.4984 0.446375 76.5325C0.471687 76.5763 0.493874 76.6213 0.521373 76.6645C0.532778 76.6827 0.546215 76.6984 0.55809 76.7163C0.575746 76.7429 0.594965 76.7683 0.613402 76.7944C0.660119 76.8608 0.707618 76.9261 0.758399 76.988C0.766213 76.9976 0.774805 77.0064 0.782773 77.016C1.12902 77.4293 1.55901 77.7427 2.03322 77.9432C2.04603 77.9485 2.05947 77.9528 2.07228 77.9581C2.15821 77.9931 2.24493 78.0259 2.33321 78.0536C2.35711 78.0611 2.38196 78.0664 2.40618 78.0733C2.48649 78.0965 2.56695 78.1184 2.64867 78.1357C2.67367 78.1411 2.69929 78.144 2.7246 78.1488C2.80868 78.1645 2.89305 78.1784 2.9782 78.1875C2.99991 78.1899 3.02209 78.1907 3.04399 78.1925C3.13444 78.2005 3.22492 78.2056 3.31585 78.2064C3.32225 78.2064 3.32849 78.2072 3.33505 78.2072H76.6669C76.673 78.2072 76.6789 78.2064 76.6853 78.2064C76.7738 78.2056 76.8618 78.2005 76.9498 78.1928C76.9754 78.1907 77.001 78.1896 77.0264 78.1869C77.1029 78.1787 77.1786 78.1659 77.2544 78.1523C77.289 78.1459 77.3242 78.1413 77.3586 78.1341C77.4229 78.1205 77.4861 78.1027 77.5496 78.0851C77.592 78.0736 77.6349 78.0637 77.6765 78.0504C77.7352 78.032 77.7925 78.0091 77.8498 77.9869C77.8928 77.9709 77.9365 77.9565 77.9784 77.9384C78.0413 77.9115 78.1026 77.88 78.164 77.8491C78.1976 77.832 78.232 77.8173 78.2648 77.7992C78.3344 77.7611 78.4018 77.7184 78.4688 77.6752C78.4912 77.6608 78.5146 77.6483 78.5365 77.6331C78.6032 77.5877 78.6674 77.5381 78.7312 77.4875C78.752 77.4712 78.7736 77.4565 78.7938 77.4397C78.8482 77.3944 78.9 77.3451 78.952 77.2957C78.98 77.2696 79.0088 77.2448 79.0357 77.2176C79.0752 77.1773 79.1122 77.1344 79.1498 77.0917C79.1869 77.0504 79.2245 77.0099 79.2592 76.9667C79.2858 76.9336 79.3104 76.8981 79.336 76.8637C79.3786 76.8069 79.4205 76.7496 79.4594 76.6901C79.465 76.6811 79.472 76.6733 79.4776 76.6645C79.4912 76.6429 79.5016 76.6208 79.5146 76.5989C79.5546 76.5336 79.593 76.4672 79.6282 76.3989C79.6448 76.3667 79.6597 76.3341 79.6749 76.3016ZM6.66828 42.924L22.4831 58.7389L6.66828 68.8021V42.924ZM31.876 60.664C36.8312 57.5088 43.1682 57.5088 48.1224 60.6635L65.2157 71.5403H14.7833L31.876 60.664ZM57.516 58.7389L73.3333 42.9213V68.8037L57.516 58.7389ZM35.3866 10.2412C38.0018 7.86374 41.9968 7.86374 44.612 10.2412L71.8378 34.9893L51.7544 55.0728L51.7021 55.0395C44.5642 50.4947 35.4349 50.4947 28.2962 55.04L28.2448 55.0725L8.16247 34.9901L35.3866 10.2412Z" fill="#7990DA"/>
<path d="M27.6429 33.8992C28.9445 35.2011 31.0552 35.2011 32.3568 33.8992L36.6664 29.5896V44.8752C36.6664 46.7163 38.1587 48.2085 39.9997 48.2085C41.8405 48.2085 43.3328 46.7163 43.3328 44.8752V29.5896L47.6424 33.8992C48.944 35.2011 51.0547 35.2011 52.3565 33.8992C53.6581 32.5976 53.6581 30.4869 52.3565 29.1853L42.3565 19.1855C42.356 19.1849 42.3555 19.1846 42.3549 19.184C42.2776 19.1069 42.1968 19.034 42.1125 18.9648C42.0739 18.933 42.0331 18.9055 41.9936 18.8759C41.9461 18.8404 41.8997 18.8037 41.8507 18.7707C41.8029 18.739 41.7539 18.7115 41.7053 18.6824C41.6605 18.6557 41.6171 18.6277 41.5709 18.6031C41.5213 18.5765 41.4704 18.5541 41.4197 18.5302C41.3717 18.5076 41.3245 18.4835 41.2752 18.4631C41.2261 18.4427 41.176 18.4263 41.1264 18.4085C41.0736 18.3895 41.0213 18.3693 40.9672 18.3529C40.9176 18.3379 40.8669 18.3268 40.8165 18.3141C40.7616 18.3002 40.7072 18.2848 40.6509 18.2737C40.5928 18.2621 40.5341 18.2554 40.4755 18.2469C40.4264 18.2399 40.3784 18.2305 40.3285 18.2257C40.1099 18.2041 39.8896 18.2041 39.6707 18.2257C39.6211 18.2305 39.5728 18.2399 39.5237 18.2469C39.4651 18.2554 39.4064 18.2621 39.3485 18.2737C39.2923 18.2848 39.2379 18.3002 39.1827 18.3141C39.1323 18.3268 39.0819 18.3379 39.032 18.3529C38.9779 18.3693 38.9259 18.3895 38.8731 18.4085C38.8232 18.4263 38.7731 18.4427 38.724 18.4631C38.6749 18.4835 38.6275 18.5074 38.5795 18.5302C38.5288 18.5541 38.4779 18.5765 38.4285 18.6031C38.3824 18.6277 38.3387 18.6557 38.2941 18.6824C38.2453 18.7115 38.1963 18.739 38.1488 18.7707C38.0995 18.8037 38.0531 18.8404 38.0059 18.8759C37.9661 18.9055 37.9253 18.933 37.8869 18.9648C37.8024 19.034 37.7213 19.1069 37.6443 19.184C37.6437 19.1846 37.6432 19.1849 37.6427 19.1855L27.6429 29.1853C26.3412 30.4872 26.3412 32.5976 27.6429 33.8992Z" fill="#7990DA"/>
</svg>
