<svg width="25" height="26" viewBox="0 0 25 26" fill="none" xmlns="http://www.w3.org/2000/svg">
<path d="M24 7.80209V4.20834C24 2.62052 22.8559 1.33334 21.4444 1.33334H3.55556C2.14416 1.33334 1 2.62052 1 4.20834V11.3958C1 12.9837 2.14416 14.2708 3.55556 14.2708H11.0625M21.4444 15.7083V12.8333C21.4444 11.2455 20.3003 9.95834 18.8889 9.95834C17.4775 9.95834 16.3333 11.2455 16.3333 12.8333V15.7083M15.0556 24.3333H22.7222C23.4279 24.3333 24 23.6898 24 22.8958V17.1458C24 16.3519 23.4279 15.7083 22.7222 15.7083H15.0556C14.3498 15.7083 13.7778 16.3519 13.7778 17.1458V22.8958C13.7778 23.6898 14.3498 24.3333 15.0556 24.3333Z" stroke="white" stroke-width="2" stroke-linecap="round" stroke-linejoin="round"/>
<path d="M6.74998 9.95834C7.80853 9.95834 8.66665 8.99296 8.66665 7.80209C8.66665 6.61123 7.80853 5.64584 6.74998 5.64584C5.69143 5.64584 4.83331 6.61123 4.83331 7.80209C4.83331 8.99296 5.69143 9.95834 6.74998 9.95834Z" fill="white"/>
<path d="M12.5 9.95834C13.5585 9.95834 14.4166 8.99296 14.4166 7.80209C14.4166 6.61123 13.5585 5.64584 12.5 5.64584C11.4414 5.64584 10.5833 6.61123 10.5833 7.80209C10.5833 8.99296 11.4414 9.95834 12.5 9.95834Z" fill="white"/>
</svg>
