<svg width="536" height="536" viewBox="0 0 536 536" fill="none" xmlns="http://www.w3.org/2000/svg">
<g clip-path="url(#clip0_150_2)">
<path d="M323.556 101.333V73.5556C323.556 42.8731 298.683 18 268 18C237.317 18 212.444 42.8731 212.444 73.5556V101.333M184.667 240.222H351.333C366.675 240.222 379.111 227.786 379.111 212.444V129.111C379.111 113.77 366.675 101.333 351.333 101.333H184.667C169.326 101.333 156.889 113.77 156.889 129.111V212.444C156.889 227.786 169.326 240.222 184.667 240.222ZM73.5556 518H462.444C493.128 518 518 493.128 518 462.444V379.111C518 348.428 493.128 323.556 462.444 323.556H73.5556C42.8731 323.556 18 348.428 18 379.111V462.444C18 493.128 42.8731 518 73.5556 518Z" stroke="#7990DA" stroke-width="35" stroke-linecap="round" stroke-linejoin="round"/>
<path d="M138.333 463.666C162.265 463.666 181.666 444.265 181.666 420.333C181.666 396.401 162.265 377 138.333 377C114.4 377 95 396.401 95 420.333C95 444.265 114.4 463.666 138.333 463.666Z" fill="#7990DA"/>
<path d="M268.333 463.666C292.265 463.666 311.666 444.265 311.666 420.333C311.666 396.401 292.265 377 268.333 377C244.401 377 225 396.401 225 420.333C225 444.265 244.401 463.666 268.333 463.666Z" fill="#7990DA"/>
<path d="M398.333 463.666C422.265 463.666 441.666 444.265 441.666 420.333C441.666 396.401 422.265 377 398.333 377C374.4 377 355 396.401 355 420.333C355 444.265 374.4 463.666 398.333 463.666Z" fill="#7990DA"/>
</g>
<defs>
<clipPath id="clip0_150_2">
<rect width="536" height="536" fill="white"/>
</clipPath>
</defs>
</svg>
