<svg width="23" height="22" viewBox="0 0 23 22" fill="none" xmlns="http://www.w3.org/2000/svg">
<path d="M0.211792 14.9123C0.729529 15.5392 1.30317 16.1219 1.92625 16.654C1.92433 16.6017 1.91667 16.5522 1.91667 16.5C1.92041 15.5696 2.21836 14.6622 2.77134 13.8968C3.32432 13.1315 4.10646 12.544 5.01496 12.2118C5.18205 12.1513 5.32814 12.0474 5.43675 11.9117C5.54536 11.776 5.61215 11.614 5.62959 11.4439C5.64703 11.2739 5.61443 11.1025 5.53545 10.9492C5.45648 10.796 5.33429 10.6668 5.18267 10.5765C4.76834 10.3316 4.42668 9.98911 4.19041 9.58175C3.95415 9.17439 3.8312 8.71582 3.83333 8.24997C3.83124 7.71592 3.99242 7.19294 4.29703 6.74537C4.60164 6.29781 5.0364 5.94518 5.54781 5.73089C6.05922 5.5166 6.62496 5.44998 7.17543 5.53925C7.72591 5.62851 8.23709 5.86976 8.64608 6.23331C9.24517 5.90439 9.90175 5.68231 10.5838 5.57789C10.21 5.0783 9.73482 4.6558 9.18665 4.33557C8.63849 4.01533 8.02854 3.80392 7.39316 3.71393C6.75777 3.62393 6.10995 3.6572 5.48829 3.81174C4.86663 3.96628 4.28385 4.23893 3.77468 4.61346C3.26551 4.98798 2.84036 5.45671 2.52457 5.99171C2.20878 6.52672 2.00881 7.11705 1.93657 7.72754C1.86434 8.33803 1.92131 8.95618 2.1041 9.54516C2.28689 10.1341 2.59176 10.6819 3.00054 11.1558C1.62131 12.039 0.628973 13.3757 0.211792 14.9123ZM22.7882 14.9123C22.3714 13.375 21.3791 12.0376 19.9995 11.154C20.4069 10.6799 20.7105 10.1324 20.8923 9.54384C21.0741 8.9553 21.1303 8.33782 21.0577 7.72809C20.985 7.11836 20.7849 6.52883 20.4692 5.99455C20.1536 5.46028 19.7289 4.99216 19.2203 4.61803C18.7117 4.24389 18.1297 3.97139 17.5089 3.8167C16.888 3.66202 16.241 3.62832 15.6062 3.71761C14.9715 3.8069 14.362 4.01735 13.814 4.33645C13.2659 4.65556 12.7906 5.0768 12.4162 5.57514C13.0983 5.67952 13.7548 5.9016 14.3539 6.23056C14.6475 5.97225 14.9943 5.77536 15.372 5.65249C15.7496 5.52961 16.15 5.48345 16.5473 5.51694C16.9447 5.55044 17.3304 5.66285 17.6798 5.84701C18.0292 6.03117 18.3346 6.28301 18.5765 6.58646C18.8184 6.8899 18.9914 7.23827 19.0846 7.60931C19.1777 7.98034 19.1889 8.36589 19.1175 8.7413C19.046 9.11671 18.8935 9.47375 18.6696 9.78958C18.4458 10.1054 18.1555 10.3731 17.8173 10.5756C17.6657 10.6659 17.5435 10.795 17.4645 10.9483C17.3856 11.1016 17.353 11.273 17.3704 11.443C17.3878 11.6131 17.4546 11.7751 17.5632 11.9108C17.6719 12.0465 17.8179 12.1504 17.985 12.2109C18.8937 12.5432 19.6759 13.1307 20.2289 13.8963C20.7819 14.6618 21.0798 15.5695 21.0833 16.5C21.0833 16.5522 21.0757 16.6017 21.0737 16.6531C21.6968 16.1213 22.2704 15.5389 22.7882 14.9123Z" fill="#4098F7"/>
<path d="M18.1642 18.5936C18.0601 17.6529 17.7413 16.7455 17.2305 15.9355C16.7196 15.1255 16.0291 14.4326 15.2077 13.9058C15.9123 13.0878 16.2958 12.0599 16.2916 11C16.2912 10.2656 16.1063 9.54211 15.7525 8.89039C15.3987 8.23866 14.8863 7.67779 14.2586 7.25501C13.6308 6.83224 12.9061 6.55993 12.1453 6.46102C11.3846 6.36211 10.6101 6.43949 9.8872 6.68665C9.16426 6.93382 8.51399 7.34352 7.99115 7.88127C7.46831 8.41901 7.08821 9.06906 6.88286 9.77665C6.67751 10.4843 6.65292 11.2287 6.81116 11.9473C6.96941 12.6659 7.30584 13.3376 7.79215 13.9058C6.97074 14.4326 6.28024 15.1255 5.76939 15.9355C5.25855 16.7455 4.93981 17.6529 4.83569 18.5936C5.44405 18.896 6.07434 19.156 6.72169 19.3719C6.71978 19.3306 6.70828 19.2921 6.70828 19.25C6.71229 18.3197 7.01034 17.4123 7.56329 16.647C8.11623 15.8817 8.89823 15.2943 9.80657 14.9618C9.9739 14.9014 10.1202 14.7975 10.229 14.6617C10.3378 14.526 10.4047 14.3638 10.4222 14.1935C10.4396 14.0233 10.4069 13.8518 10.3278 13.6984C10.2486 13.545 10.1262 13.4159 9.97428 13.3256C9.55983 13.081 9.21806 12.7387 8.98177 12.3315C8.74548 11.9242 8.6226 11.4657 8.62494 11C8.62494 10.2706 8.92784 9.57115 9.46701 9.05543C10.0062 8.5397 10.7374 8.24997 11.4999 8.24997C12.2624 8.24997 12.9937 8.5397 13.5329 9.05543C14.072 9.57115 14.3749 10.2706 14.3749 11C14.3773 11.4657 14.2544 11.9242 14.0181 12.3315C13.7818 12.7387 13.4401 13.081 13.0256 13.3256C12.8737 13.4159 12.7513 13.545 12.6721 13.6984C12.593 13.8518 12.5603 14.0233 12.5777 14.1935C12.5952 14.3638 12.6621 14.526 12.7709 14.6617C12.8797 14.7975 13.026 14.9014 13.1933 14.9618C14.1017 15.2943 14.8837 15.8817 15.4366 16.647C15.9895 17.4123 16.2876 18.3197 16.2916 19.25C16.2916 19.2921 16.2801 19.3306 16.2792 19.3719C16.9262 19.156 17.5562 18.8959 18.1642 18.5936Z" fill="#4098F7"/>
</svg>
