<svg width="21" height="21" viewBox="0 0 21 21" fill="none" xmlns="http://www.w3.org/2000/svg">
<path d="M14.0534 14.316L14.5206 13.8264L13.4358 12.6765L12.9688 13.1661L14.0534 14.316ZM16.0893 13.6213L18.0486 14.7441L18.7833 13.3195L16.824 12.1967L16.0893 13.6213ZM18.4258 16.9756L16.9689 18.5026L18.0535 19.6526L19.5105 18.1256L18.4258 16.9756ZM16.0812 18.9943C14.5942 19.1404 10.7471 19.0102 6.58183 14.6445L5.49715 15.7944C10.0425 20.5585 14.3687 20.7911 16.2239 20.6089L16.0812 18.9943ZM6.58183 14.6445C2.61147 10.483 1.95378 6.98292 1.87191 5.46446L0.336042 5.55647C0.43907 7.4676 1.25344 11.3465 5.49715 15.7944L6.58183 14.6445ZM7.99231 7.96318L8.28644 7.65488L7.2018 6.50498L6.90766 6.81328L7.99231 7.96318ZM8.52058 3.72499L7.22739 1.90405L5.9959 2.87586L7.28908 4.69681L8.52058 3.72499ZM2.87794 1.50772L1.26821 3.19492L2.35289 4.34482L3.96262 2.65762L2.87794 1.50772ZM7.44999 7.38823C6.90766 6.81328 6.90692 6.81405 6.90618 6.81483C6.90594 6.81509 6.9052 6.81587 6.9047 6.8164C6.90369 6.81747 6.90267 6.81856 6.90163 6.81967C6.89955 6.82191 6.8974 6.82423 6.89518 6.82665C6.89074 6.83151 6.88604 6.83676 6.8811 6.84243C6.8712 6.85374 6.86034 6.8667 6.84871 6.88132C6.82546 6.91056 6.79912 6.94658 6.77143 6.98966C6.71591 7.07602 6.65542 7.19021 6.60409 7.33382C6.49935 7.62684 6.4432 8.01312 6.5136 8.49143C6.65127 9.42685 7.26242 10.6625 8.82794 12.3033L9.91258 11.1534C8.44756 9.61783 8.09856 8.68336 8.03374 8.24283C8.00288 8.03318 8.03487 7.92999 8.04369 7.90556C8.04903 7.89045 8.05159 7.8889 8.04503 7.89923C8.04174 7.90428 8.03631 7.91218 8.0278 7.92283C8.02359 7.92816 8.01857 7.93419 8.01272 7.94091C8.00975 7.94428 8.00667 7.94781 8.00318 7.95152C8.00154 7.95338 7.9998 7.95527 7.99795 7.95722C7.99703 7.95819 7.99611 7.95917 7.99518 7.96017C7.99477 7.96066 7.99405 7.96142 7.99375 7.96167C7.99303 7.96243 7.99231 7.96318 7.44999 7.38823ZM8.82794 12.3033C10.394 13.9447 11.5716 14.5835 12.4605 14.7273C12.9147 14.8007 13.281 14.7421 13.5588 14.633C13.695 14.5795 13.8035 14.5165 13.8855 14.4585C13.9266 14.4295 13.9608 14.402 13.9886 14.3776C14.0025 14.3655 14.0149 14.3542 14.0256 14.3438C14.0311 14.3386 14.0361 14.3338 14.0407 14.3291C14.0431 14.3267 14.0452 14.3245 14.0474 14.3223C14.0484 14.3212 14.0494 14.3201 14.0504 14.3191C14.051 14.3185 14.0518 14.3178 14.052 14.3175C14.0527 14.3168 14.0534 14.316 13.5111 13.741C12.9688 13.1661 12.9695 13.1653 12.9702 13.1646C12.9704 13.1644 12.9711 13.1636 12.9716 13.1631C12.9726 13.1621 12.9735 13.1611 12.9744 13.1602C12.9764 13.1583 12.9781 13.1565 12.9799 13.1546C12.9834 13.1511 12.9868 13.1478 12.99 13.1447C12.9964 13.1386 13.0021 13.1333 13.0072 13.129C13.0173 13.1202 13.0248 13.1145 13.0294 13.1112C13.0389 13.1045 13.037 13.1075 13.0218 13.1135C12.9967 13.1233 12.8961 13.1571 12.6938 13.1244C12.27 13.0559 11.3772 12.6884 9.91258 11.1534L8.82794 12.3033ZM7.22739 1.90405C6.18202 0.432094 4.12639 0.199179 2.87794 1.50772L3.96262 2.65762C4.5079 2.08609 5.47632 2.14427 5.9959 2.87586L7.22739 1.90405ZM1.87191 5.46446C1.85174 5.0903 2.01454 4.69945 2.35289 4.34482L1.26821 3.19492C0.717153 3.77249 0.283933 4.5901 0.336042 5.55647L1.87191 5.46446ZM16.9689 18.5026C16.6871 18.7981 16.3849 18.9645 16.0812 18.9943L16.2239 20.6089C16.9773 20.5348 17.5946 20.1336 18.0535 19.6526L16.9689 18.5026ZM8.28644 7.65488C9.29612 6.5966 9.37119 4.92269 8.52058 3.72499L7.28908 4.69681C7.7029 5.27948 7.64136 6.04427 7.2018 6.50498L8.28644 7.65488ZM18.0486 14.7441C18.8873 15.2248 19.018 16.3549 18.4258 16.9756L19.5105 18.1256C20.885 16.6848 20.4612 14.2809 18.7833 13.3195L18.0486 14.7441ZM14.5206 13.8264C14.9144 13.4137 15.5483 13.3114 16.0893 13.6213L16.824 12.1967C15.7127 11.5599 14.3335 11.7357 13.4358 12.6765L14.5206 13.8264Z" fill="white"/>
</svg>
