<svg width="23" height="23" viewBox="0 0 23 23" fill="none" xmlns="http://www.w3.org/2000/svg">
<g clip-path="url(#clip0_131_21)">
<path d="M11.666 21.6667C17.1888 21.6667 21.666 17.1895 21.666 11.6667C21.666 6.1439 17.1888 1.66675 11.666 1.66675C6.14317 1.66675 1.66602 6.1439 1.66602 11.6667C1.66602 13.2664 2.04164 14.7783 2.70948 16.1192C2.88696 16.4755 2.94603 16.8828 2.84314 17.2673L2.24753 19.4934C1.98897 20.4597 2.87303 21.3437 3.83937 21.0852L6.06541 20.4896C6.44995 20.3867 6.85723 20.4458 7.21355 20.6232C8.55439 21.2911 10.0663 21.6667 11.666 21.6667Z" stroke="white" stroke-width="2"/>
<path d="M9 12.9C9 11.9101 9 11.4151 9.21967 11.1076C9.43934 10.8 9.79289 10.8 10.5 10.8H12.5C13.2071 10.8 13.5606 10.8 13.7803 11.1076C14 11.4151 14 11.9101 14 12.9C14 13.89 14 14.3849 13.7803 14.6925C13.5606 15 13.2071 15 12.5 15H10.5C9.79289 15 9.43934 15 9.21967 14.6925C9 14.3849 9 13.89 9 12.9Z" stroke="white"/>
<path d="M10 10.8V10.1C10 8.9402 10.6716 8 11.5 8C12.3284 8 13 8.9402 13 10.1V10.8" stroke="white" stroke-linecap="round"/>
<path d="M10.5 12.9H10.5022M11.4978 12.9H11.5M12.4978 12.9H12.5" stroke="white" stroke-width="0.5" stroke-linecap="round" stroke-linejoin="round"/>
</g>
<defs>
<clipPath id="clip0_131_21">
<rect width="23" height="23" fill="white"/>
</clipPath>
</defs>
</svg>
