<svg width="16" height="15" viewBox="0 0 16 15" fill="none" xmlns="http://www.w3.org/2000/svg">
<path fill-rule="evenodd" clip-rule="evenodd" d="M13.25 13.5H2.75054C2.18543 13.5 1.76812 12.9772 1.98126 12.4965C2.97021 10.2735 5.29355 9 7.99988 9C10.707 9 13.0304 10.2735 14.0193 12.4965C14.2325 12.9772 13.8152 13.5 13.25 13.5ZM4.73333 4.49999C4.73333 2.84549 6.1992 1.49999 7.99988 1.49999C9.80138 1.49999 11.2664 2.84549 11.2664 4.49999C11.2664 6.15449 9.80138 7.49999 7.99988 7.49999C6.1992 7.49999 4.73333 6.15449 4.73333 4.49999ZM15.9645 13.227C15.3708 10.7077 13.5138 8.84848 11.0696 8.00473C12.3648 7.04697 13.1202 5.4982 12.8425 3.80245C12.5208 1.8352 10.7389 0.260983 8.58786 0.0314827C5.61857 -0.285768 3.10006 1.83674 3.10006 4.49999C3.10006 5.91749 3.81543 7.18047 4.93096 8.00473C2.48595 8.84848 0.629731 10.7077 0.0352192 13.227C-0.180373 14.1427 0.623199 15 1.64318 15H14.3566C15.3774 15 16.1809 14.1427 15.9645 13.227Z" fill="#4098F7"/>
</svg>
