<svg width="800" height="800" viewBox="0 0 800 800" fill="none" xmlns="http://www.w3.org/2000/svg">
<path fill-rule="evenodd" clip-rule="evenodd" d="M506.336 234.848C506.336 318.711 438.646 386.696 355.148 386.696C271.649 386.696 203.96 318.711 203.96 234.848C203.96 150.984 271.649 83 355.148 83C438.646 83 506.336 150.984 506.336 234.848ZM264.435 234.848C264.435 285.166 305.047 325.956 355.148 325.956C405.248 325.956 445.861 285.166 445.861 234.848C445.861 184.53 405.248 143.739 355.148 143.739C305.047 143.739 264.435 184.53 264.435 234.848Z" fill="#7990DA"/>
<path d="M345.338 469.389C318.454 468.635 300.544 464.765 286.381 459.712C272.395 454.723 261.348 448.456 246.792 440.196C243.953 438.586 240.976 436.896 237.822 435.129C206.244 417.429 165.689 421.543 139.367 445.831C127.886 456.424 114.458 470.126 103.71 485.054C93.4631 499.286 83 518.218 83 538.543V607.573C83 653.324 123.619 690.391 173.713 690.391H388.43C370.713 674.541 356.036 655.869 345.269 635.174H173.713C157.007 635.174 143.475 622.816 143.475 607.573V538.543C143.475 534.537 146.06 526.754 154.244 515.388C161.925 504.717 172.309 493.939 182.354 484.67C188.654 478.856 198.237 477.732 206.185 482.188C208.686 483.588 211.234 485.04 213.836 486.526C228.424 494.841 244.746 504.143 264.376 511.144C282.193 517.5 302.28 521.906 327.202 523.759C330.316 504.571 336.521 486.302 345.338 469.389Z" fill="#7990DA"/>
<path d="M506.315 497.13C506.315 481.882 519.852 469.522 536.553 469.522C553.253 469.522 566.79 481.882 566.79 497.13V524.739H597.028C613.728 524.739 627.265 537.099 627.265 552.348C627.265 567.596 613.728 579.956 597.028 579.956H566.79V607.565C566.79 622.813 553.253 635.174 536.553 635.174C519.852 635.174 506.315 622.813 506.315 607.565V579.956H476.077C459.377 579.956 445.84 567.596 445.84 552.348C445.84 537.099 459.377 524.739 476.077 524.739H506.315V497.13Z" fill="#7990DA"/>
<path fill-rule="evenodd" clip-rule="evenodd" d="M718 552.348C718 643.835 636.773 718 536.575 718C436.376 718 355.149 643.835 355.149 552.348C355.149 460.861 436.376 386.696 536.575 386.696C636.773 386.696 718 460.861 718 552.348ZM415.077 552.348C415.077 613.614 469.474 663.282 536.575 663.282C603.675 663.282 658.072 613.614 658.072 552.348C658.072 491.081 603.675 441.413 536.575 441.413C469.474 441.413 415.077 491.081 415.077 552.348Z" fill="#7990DA"/>
</svg>
