<svg width="23" height="28" viewBox="0 0 23 28" fill="none" xmlns="http://www.w3.org/2000/svg">
<path d="M21.9868 13.3133C21.9868 19.4289 18.0048 25.1567 12.5645 26.8326C12.1944 26.9451 11.7905 26.9451 11.4204 26.8326C5.98008 25.1567 1.99805 19.4289 1.99805 13.3133V7.82302C1.99805 6.79751 2.69351 5.63444 3.55723 5.24675L9.80513 2.39536C11.2073 1.75754 12.7889 1.75754 14.191 2.39536L20.4389 5.24675C21.2914 5.63444 21.998 6.79751 21.998 7.82302L21.9868 13.3133Z" stroke="white" stroke-width="2" stroke-linecap="round" stroke-linejoin="round"/>
<path d="M11.9934 15.0391C13.2324 15.0391 14.2368 13.9193 14.2368 12.5379C14.2368 11.1565 13.2324 10.0366 11.9934 10.0366C10.7544 10.0366 9.75 11.1565 9.75 12.5379C9.75 13.9193 10.7544 15.0391 11.9934 15.0391Z" stroke="white" stroke-width="2" stroke-miterlimit="10" stroke-linecap="round" stroke-linejoin="round"/>
<path d="M11.9922 15.0391V18.7909" stroke="white" stroke-width="2" stroke-miterlimit="10" stroke-linecap="round" stroke-linejoin="round"/>
</svg>
