<svg width="25" height="25" viewBox="0 0 25 25" fill="none" xmlns="http://www.w3.org/2000/svg">
<g clip-path="url(#clip0_144_12)">
<path d="M12.703 15.9971C14.6644 15.9971 16.2543 14.498 16.2543 12.6488C16.2543 10.7997 14.6644 9.30063 12.703 9.30063C10.7418 9.30063 9.15179 10.7997 9.15179 12.6488C9.15179 14.498 10.7418 15.9971 12.703 15.9971Z" stroke="white" stroke-width="2"/>
<path d="M14.7921 1.65807C14.357 1.48816 13.8054 1.48816 12.7023 1.48816C11.5992 1.48816 11.0477 1.48816 10.6125 1.65807C10.0324 1.88462 9.57151 2.31916 9.33124 2.8661C9.22151 3.11577 9.17856 3.40612 9.16178 3.82967C9.13713 4.45209 8.79856 5.02821 8.22643 5.33964C7.65432 5.65106 6.95585 5.63943 6.37178 5.34838C5.97435 5.15032 5.68617 5.04019 5.40198 5.00492C4.77945 4.92764 4.14986 5.08669 3.65171 5.44709C3.27809 5.71737 3.00231 6.16773 2.45075 7.06844C1.89919 7.96915 1.62341 8.4195 1.56194 8.85971C1.47998 9.4466 1.64868 10.0403 2.03093 10.5099C2.20539 10.7243 2.4506 10.9045 2.83116 11.1299C3.39062 11.4613 3.75059 12.026 3.75055 12.6488C3.75052 13.2718 3.39055 13.8362 2.83115 14.1676C2.45054 14.3932 2.2053 14.5734 2.03081 14.7878C1.64856 15.2575 1.47987 15.851 1.56183 16.4379C1.6233 16.8781 1.89907 17.3286 2.45064 18.2292C3.00221 19.1299 3.27798 19.5803 3.65159 19.8505C4.14974 20.2109 4.77933 20.37 5.40187 20.2928C5.68603 20.2575 5.97419 20.1473 6.3716 19.9493C6.95571 19.6582 7.65422 19.6466 8.22639 19.958C8.79855 20.2695 9.13713 20.8456 9.16178 21.4682C9.17865 21.8916 9.22151 22.182 9.33124 22.4317C9.57151 22.9786 10.0324 23.4131 10.6125 23.6397C11.0477 23.8095 11.5992 23.8095 12.7023 23.8095C13.8054 23.8095 14.357 23.8095 14.7921 23.6397C15.3721 23.4131 15.8331 22.9786 16.0733 22.4317C16.183 22.182 16.226 21.8916 16.2428 21.468C16.2674 20.8456 16.606 20.2695 17.1781 19.958C17.7502 19.6465 18.4487 19.6582 19.0329 19.9493C19.4303 20.1473 19.7184 20.2573 20.0025 20.2926C20.6251 20.37 21.2547 20.2109 21.7528 19.8505C22.1264 19.5803 22.4022 19.1299 22.9537 18.2291C23.5054 17.3285 23.7812 16.8781 23.8427 16.4379C23.9245 15.851 23.7559 15.2573 23.3737 14.7877C23.1991 14.5733 22.9538 14.393 22.5733 14.1676C22.0139 13.8362 21.654 13.2716 21.654 12.6487C21.654 12.0259 22.0139 11.4615 22.5733 11.1301C22.954 10.9045 23.1993 10.7245 23.3737 10.5099C23.756 10.0403 23.9246 9.44669 23.8428 8.85978C23.7813 8.41958 23.5055 7.96922 22.9538 7.06852C22.4023 6.16781 22.1265 5.71745 21.7529 5.44717C21.2548 5.08678 20.6252 4.92772 20.0027 5.005C19.7186 5.04027 19.4304 5.15039 19.0329 5.34843C18.4488 5.63949 17.7503 5.65112 17.1782 5.33968C16.606 5.02824 16.2674 4.45206 16.2428 3.82961C16.226 3.40611 16.183 3.11576 16.0733 2.8661C15.8331 2.31916 15.3721 1.88462 14.7921 1.65807Z" stroke="white" stroke-width="2"/>
</g>
<defs>
<clipPath id="clip0_144_12">
<rect width="25" height="25" fill="white"/>
</clipPath>
</defs>
</svg>
