<svg width="28" height="28" viewBox="0 0 28 28" fill="none" xmlns="http://www.w3.org/2000/svg">
<path d="M14.2274 17.9167C16.4241 17.9167 18.2048 16.2378 18.2048 14.1667C18.2048 12.0957 16.4241 10.4167 14.2274 10.4167C12.0308 10.4167 10.25 12.0957 10.25 14.1667C10.25 16.2378 12.0308 17.9167 14.2274 17.9167Z" stroke="white" stroke-width="2"/>
<path d="M16.5672 1.85705C16.0798 1.66675 15.4621 1.66675 14.2266 1.66675C12.9911 1.66675 12.3734 1.66675 11.886 1.85705C11.2363 2.11079 10.7201 2.59747 10.451 3.21004C10.3281 3.48967 10.28 3.81487 10.2612 4.28924C10.2336 4.98635 9.8544 5.63161 9.21361 5.98041C8.57285 6.3292 7.79056 6.31617 7.1364 5.9902C6.69128 5.76837 6.36852 5.64502 6.05023 5.60552C5.35299 5.51897 4.64785 5.69711 4.08992 6.10075C3.67147 6.40347 3.3626 6.90787 2.74485 7.91666C2.1271 8.92546 1.81823 9.42985 1.74938 9.92289C1.65759 10.5802 1.84653 11.2451 2.27465 11.7711C2.47005 12.0112 2.74468 12.213 3.17091 12.4655C3.7975 12.8367 4.20067 13.4691 4.20063 14.1667C4.20059 14.8644 3.79743 15.4966 3.1709 15.8677C2.74461 16.1204 2.46994 16.3222 2.27452 16.5624C1.8464 17.0884 1.65746 17.7531 1.74926 18.4105C1.8181 18.9035 2.12697 19.408 2.74472 20.4167C3.36248 21.4255 3.67135 21.93 4.08979 22.2326C4.64772 22.6362 5.35286 22.8144 6.0501 22.7279C6.36836 22.6884 6.6911 22.565 7.1362 22.3432C7.7904 22.0172 8.57274 22.0042 9.21356 22.353C9.85438 22.7019 10.2336 23.3471 10.2612 24.0444C10.2801 24.5186 10.3281 24.8439 10.451 25.1235C10.7201 25.736 11.2363 26.2227 11.886 26.4765C12.3734 26.6667 12.9911 26.6667 14.2266 26.6667C15.4621 26.6667 16.0798 26.6667 16.5672 26.4765C17.2168 26.2227 17.7331 25.736 18.0021 25.1235C18.125 24.8439 18.1731 24.5186 18.1919 24.0442C18.2195 23.3471 18.5987 22.7019 19.2395 22.353C19.8802 22.0041 20.6626 22.0172 21.3169 22.3432C21.7619 22.565 22.0846 22.6882 22.4028 22.7277C23.1001 22.8144 23.8053 22.6362 24.3632 22.2326C24.7816 21.9299 25.0905 21.4255 25.7082 20.4166C26.326 19.4079 26.6349 18.9035 26.7038 18.4105C26.7955 17.7531 26.6066 17.0882 26.1785 16.5622C25.983 16.3221 25.7083 16.1202 25.2821 15.8677C24.6556 15.4966 24.2525 14.8642 24.2525 14.1666C24.2525 13.469 24.6556 12.8369 25.2821 12.4657C25.7085 12.2131 25.9832 12.0114 26.1786 11.7711C26.6067 11.2452 26.7956 10.5803 26.7039 9.92296C26.6351 9.42994 26.3262 8.92554 25.7083 7.91675C25.0906 6.90796 24.7817 6.40356 24.3633 6.10084C23.8054 5.6972 23.1002 5.51906 22.403 5.60561C22.0848 5.64511 21.7621 5.76845 21.3169 5.99025C20.6627 6.31624 19.8803 6.32927 19.2396 5.98045C18.5987 5.63164 18.2195 4.98632 18.1919 4.28917C18.1731 3.81485 18.125 3.48966 18.0021 3.21004C17.7331 2.59747 17.2168 2.11079 16.5672 1.85705Z" stroke="white" stroke-width="2"/>
</svg>
