<svg width="32" height="33" viewBox="0 0 32 33" fill="none" xmlns="http://www.w3.org/2000/svg">
<path d="M31.3482 16.8728C31.3482 15.5897 31.244 14.6534 31.0188 13.6823H16.3662V19.4739H24.9669C24.7936 20.9132 23.8573 23.0806 21.7763 24.5371L21.7472 24.7311L26.38 28.32L26.701 28.3522C29.6488 25.6296 31.3482 21.624 31.3482 16.8728Z" fill="#4285F4"/>
<path d="M16.3663 32.1321C20.5799 32.1321 24.1172 30.7449 26.701 28.352L21.7764 24.537C20.4586 25.4561 18.6898 26.0977 16.3663 26.0977C12.2394 26.0977 8.73665 23.3754 7.48803 19.6126L7.30498 19.6281L2.48773 23.3563L2.42474 23.5314C4.99101 28.6294 10.2625 32.1321 16.3663 32.1321Z" fill="#34A853"/>
<path d="M7.48801 19.6125C7.15845 18.6413 6.96787 17.6009 6.96787 16.5258C6.96787 15.4506 7.15845 14.4103 7.47061 13.4393L7.46191 13.2325L2.58423 9.44437L2.42461 9.52035C1.36692 11.6358 0.76001 14.0115 0.76001 16.5258C0.76001 19.0401 1.36692 21.4157 2.42461 23.5312L7.48801 19.6125Z" fill="#FBBC05"/>
<path d="M16.3663 6.95433C19.2967 6.95433 21.2735 8.22024 22.4006 9.27805L26.805 4.97758C24.1 2.46328 20.5799 0.920013 16.3663 0.920013C10.2625 0.920013 4.99101 4.42275 2.42474 9.52072L7.47063 13.4397C8.73665 9.67686 12.2394 6.95433 16.3663 6.95433Z" fill="#EB4335"/>
</svg>
