<svg width="28" height="22" viewBox="0 0 28 22" fill="none" xmlns="http://www.w3.org/2000/svg">
<path d="M24.2817 5.35029C24.2981 5.58349 24.2981 5.81669 24.2981 6.05199C24.2981 13.2223 18.7718 21.4918 8.66671 21.4918V21.4875C5.68161 21.4918 2.75851 20.6472 0.245605 19.0548C0.679705 19.1064 1.11591 19.1322 1.55321 19.1332C4.02701 19.1354 6.43011 18.3155 8.37621 16.8058C6.02541 16.7618 3.96391 15.2478 3.24371 13.0375C4.06721 13.1943 4.91581 13.1621 5.72401 12.944C3.16111 12.4325 1.31711 10.2082 1.31711 7.62509C1.31711 7.60149 1.31711 7.57889 1.31711 7.55629C2.08081 7.97649 2.9359 8.20959 3.8105 8.23539C1.39661 6.64189 0.652507 3.46989 2.11021 0.989894C4.89941 4.37999 9.01481 6.44099 13.4326 6.65909C12.9898 4.77439 13.5947 2.79939 15.0219 1.47449C17.2346 -0.580006 20.7147 -0.474706 22.7946 1.70979C24.025 1.47019 25.2042 1.02429 26.2834 0.392493C25.8733 1.64859 25.015 2.71559 23.8684 3.39359C24.9573 3.26679 26.0212 2.97889 27.0231 2.53939C26.2856 3.63109 25.3565 4.58199 24.2817 5.35029Z" fill="#1D9BF0"/>
</svg>
