<svg width="26" height="16" viewBox="0 0 26 16" fill="none" xmlns="http://www.w3.org/2000/svg">
<path d="M24.1665 3.13103C23.1665 2.59532 21.9165 2.38103 20.7915 2.70246L17.9165 3.5596C17.1665 1.84532 15.2915 0.666748 13.1665 0.666748H5.6665C2.9165 0.666748 0.666504 2.59532 0.666504 4.95246V11.381C0.666504 13.7382 2.9165 15.6667 5.6665 15.6667H13.1665C15.2915 15.6667 17.1665 14.4882 17.9165 12.7739L20.7915 13.631C21.1665 13.7382 21.5415 13.8453 22.0415 13.8453C22.7915 13.8453 23.5415 13.631 24.1665 13.2025C25.1665 12.5596 25.6665 11.5953 25.6665 10.631V5.80961C25.6665 4.73818 25.0415 3.77389 24.1665 3.13103ZM13.1665 13.5239H5.6665C4.2915 13.5239 3.1665 12.5596 3.1665 11.381V4.95246C3.1665 3.77389 4.2915 2.80961 5.6665 2.80961H13.1665C14.5415 2.80961 15.6665 3.77389 15.6665 4.95246V11.381C15.6665 12.5596 14.5415 13.5239 13.1665 13.5239ZM23.1665 10.5239C23.1665 10.8453 22.9165 11.1667 22.6665 11.381C22.2915 11.5953 21.9165 11.5953 21.5415 11.4882L18.1665 10.631V5.70246L21.5415 4.73818C21.9165 4.63103 22.2915 4.73818 22.6665 4.95246C22.9165 5.16675 23.1665 5.38103 23.1665 5.80961V10.5239Z" fill="white"/>
</svg>
